<svg xmlns="http://www.w3.org/2000/svg" width="1200" height="630" viewBox="0 0 1200 630" role="img" aria-labelledby="title desc">
  <title id="title">Zyvenox Lab</title>
  <desc id="desc">Digital systems, cybersecurity, and autonomous AI engineering.</desc>
  <defs>
    <radialGradient id="g" cx="18%" cy="0%" r="100%"><stop offset="0" stop-color="#113c4b"/><stop offset=".5" stop-color="#0b0f14"/><stop offset="1" stop-color="#071016"/></radialGradient>
    <linearGradient id="a" x1="0" x2="1"><stop stop-color="#69ddff"/><stop offset="1" stop-color="#23b9ef"/></linearGradient>
  </defs>
  <rect width="1200" height="630" fill="url(#g)"/>
  <g opacity=".14" stroke="#69ddff"><path d="M0 70h1200M0 140h1200M0 210h1200M0 280h1200M0 350h1200M0 420h1200M0 490h1200M0 560h1200"/><path d="M70 0v630M140 0v630M210 0v630M280 0v630M350 0v630M420 0v630M490 0v630M560 0v630M630 0v630M700 0v630M770 0v630M840 0v630M910 0v630M980 0v630M1050 0v630M1120 0v630"/></g>
  <g transform="translate(98 110)"><rect width="86" height="86" rx="24" fill="none" stroke="url(#a)" stroke-width="3" transform="rotate(45 43 43)"/><circle cx="43" cy="43" r="15" fill="#69ddff"/><circle cx="43" cy="43" r="29" fill="none" stroke="#69ddff" opacity=".45"/></g>
  <text x="100" y="295" fill="#f3f7f9" font-family="Arial, sans-serif" font-size="82" font-weight="700" letter-spacing="-5">zyvenox<tspan fill="#69ddff">lab</tspan></text>
  <text x="105" y="365" fill="#98a6b2" font-family="Arial, sans-serif" font-size="28" letter-spacing="2">DIGITAL SYSTEMS · CYBERSECURITY · AI</text>
  <text x="105" y="490" fill="#69ddff" font-family="Arial, sans-serif" font-size="22" letter-spacing="4">BUILD BEYOND POSSIBLE.</text>
</svg>
